<?xml version="1.0" encoding="UTF-8" standalone="no"?><!DOCTYPE svg PUBLIC "-//W3C//DTD SVG 1.1//EN" "http://www.w3.org/Graphics/SVG/1.1/DTD/svg11.dtd"><svg width="100%" height="100%" viewBox="0 0 80 80" version="1.1" xmlns="http://www.w3.org/2000/svg" xmlns:xlink="http://www.w3.org/1999/xlink" xml:space="preserve" xmlns:serif="http://www.serif.com/" style="fill-rule:evenodd;clip-rule:evenodd;stroke-linejoin:round;stroke-miterlimit:1.41421;"><path d="M40,5.428c19.081,0 34.572,15.491 34.572,34.572c0,19.081 -15.491,34.572 -34.572,34.572c-19.081,0 -34.572,-15.491 -34.572,-34.572c0,-19.081 15.491,-34.572 34.572,-34.572Zm0,8.167c14.573,0 26.405,11.832 26.405,26.405c0,14.573 -11.832,26.405 -26.405,26.405c-14.573,0 -26.405,-11.832 -26.405,-26.405c0,-14.573 11.832,-26.405 26.405,-26.405Zm-5.676,26.475l12.336,-21.367l6.835,3.946l-10.702,18.536l3.609,13.47l-7.623,2.042l-4.455,-16.627l0,0Z"/></svg>