<?xml version="1.0" encoding="UTF-8" standalone="no"?><!DOCTYPE svg PUBLIC "-//W3C//DTD SVG 1.1//EN" "http://www.w3.org/Graphics/SVG/1.1/DTD/svg11.dtd"><svg width="100%" height="100%" viewBox="0 0 120 80" version="1.1" xmlns="http://www.w3.org/2000/svg" xmlns:xlink="http://www.w3.org/1999/xlink" xml:space="preserve" xmlns:serif="http://www.serif.com/" style="fill-rule:evenodd;clip-rule:evenodd;stroke-linejoin:round;stroke-miterlimit:1.41421;"><path d="M20.714,52.398l17.692,9.422l-3.394,6.19l-22.603,-12.038l-6.23,-3.318l3.394,-6.189l12.312,-22.454l6.231,3.318l-10.139,18.489c16.173,-5.435 29.88,-21.118 45.098,-13.018c1.914,1.018 3.723,2.235 5.364,3.648c0,0 2.511,-1.151 5.001,-1.707c6.103,-1.364 12.475,0.845 18.298,1.463c6.655,0.707 14.349,-0.693 18.319,-6.533c0.025,-0.038 0.055,-0.085 0.055,-0.085c1.993,1.213 3.986,2.425 5.98,3.638c-5.717,9.396 -19.865,11.672 -32.351,8.548c-1.082,-0.26 -1.258,-0.28 -1.855,-0.374c-2.834,-0.444 -5.769,-0.275 -8.508,0.612c0,0 -0.484,-0.393 0.024,0.529c4.497,8.351 2.246,20.991 -6.81,22.679c-4.525,0.843 -9.345,-2.344 -10.67,-7.125c-1.701,-6.138 1.527,-12.829 6.368,-17.428c0,0 -2.844,-1.978 -4.356,-2.574c-9.399,-3.705 -21.019,7.816 -33.125,12.682c-1.344,0.541 -2.713,1.108 -4.095,1.625Zm46.376,-6.638c-3.756,3.568 -6.89,10.334 -2.887,12.373c3.206,1.632 6.192,-6.557 2.987,-12.364c0,0 0.028,-0.128 -0.1,-0.009Z"/></svg>