<?xml version="1.0" encoding="UTF-8" standalone="no"?><!DOCTYPE svg PUBLIC "-//W3C//DTD SVG 1.1//EN" "http://www.w3.org/Graphics/SVG/1.1/DTD/svg11.dtd"><svg width="100%" height="100%" viewBox="0 0 80 80" version="1.1" xmlns="http://www.w3.org/2000/svg" xmlns:xlink="http://www.w3.org/1999/xlink" xml:space="preserve" xmlns:serif="http://www.serif.com/" style="fill-rule:evenodd;clip-rule:evenodd;stroke-linejoin:round;stroke-miterlimit:1.41421;"><path id="path3611" d="M26.963,68.558c26.522,0 41.024,-21.972 41.024,-41.025c0,-0.624 -0.012,-1.245 -0.04,-1.864c2.815,-2.035 5.262,-4.575 7.192,-7.466c-2.583,1.148 -5.364,1.921 -8.28,2.27c2.977,-1.785 5.262,-4.609 6.34,-7.975c-2.786,1.651 -5.871,2.852 -9.156,3.5c-2.631,-2.803 -6.377,-4.556 -10.525,-4.556c-7.962,0 -14.419,6.457 -14.419,14.417c0,1.132 0.126,2.232 0.374,3.288c-11.984,-0.603 -22.611,-6.341 -29.721,-15.065c-1.239,2.131 -1.953,4.606 -1.953,7.247c0,5.002 2.546,9.419 6.417,12.002c-2.366,-0.073 -4.588,-0.722 -6.531,-1.803c-0.002,0.06 -0.002,0.119 -0.002,0.184c0,6.983 4.97,12.813 11.568,14.134c-1.211,0.331 -2.486,0.508 -3.802,0.508c-0.928,0 -1.831,-0.091 -2.71,-0.26c1.836,5.729 7.159,9.898 13.47,10.015c-4.935,3.868 -11.152,6.171 -17.909,6.171c-1.162,0 -2.31,-0.066 -3.439,-0.199c6.381,4.09 13.959,6.477 22.103,6.477" style="fill:#1da1f2;fill-rule:nonzero;"/></svg>