<?xml version="1.0" encoding="UTF-8" standalone="no"?><!DOCTYPE svg PUBLIC "-//W3C//DTD SVG 1.1//EN" "http://www.w3.org/Graphics/SVG/1.1/DTD/svg11.dtd"><svg width="100%" height="100%" viewBox="0 0 80 80" version="1.1" xmlns="http://www.w3.org/2000/svg" xmlns:xlink="http://www.w3.org/1999/xlink" xml:space="preserve" xmlns:serif="http://www.serif.com/" style="fill-rule:evenodd;clip-rule:evenodd;stroke-linejoin:round;stroke-miterlimit:1.41421;"><path id="Blue_1_" d="M66.033,10.737c1.784,0 3.23,1.446 3.23,3.23l0,52.066c0,1.784 -1.447,3.23 -3.23,3.23l-14.914,0l0,-22.665l7.607,0l1.139,-8.832l-8.746,0l0,-5.639c0,-2.558 0.71,-4.3 4.377,-4.3l4.677,-0.002l0,-7.9c-0.809,-0.108 -3.585,-0.349 -6.815,-0.349c-6.744,0 -11.36,4.117 -11.36,11.676l0,6.514l-7.627,0l0,8.832l7.627,0l0,22.665l-28.031,0c-1.784,0 -3.23,-1.447 -3.23,-3.23l0,-52.066c0,-1.784 1.446,-3.23 3.23,-3.23l52.066,0Z" style="fill:#3c5a99;fill-rule:nonzero;"/></svg>