<?xml version="1.0" encoding="UTF-8" standalone="no"?><!DOCTYPE svg PUBLIC "-//W3C//DTD SVG 1.1//EN" "http://www.w3.org/Graphics/SVG/1.1/DTD/svg11.dtd"><svg width="100%" height="100%" viewBox="0 0 80 80" version="1.1" xmlns="http://www.w3.org/2000/svg" xmlns:xlink="http://www.w3.org/1999/xlink" xml:space="preserve" xmlns:serif="http://www.serif.com/" style="fill-rule:evenodd;clip-rule:evenodd;stroke-linejoin:round;stroke-miterlimit:1.41421;"><path d="M69.056,25.422c1.297,4.86 1.248,14.628 1.248,14.628c0,0 0,9.835 -1.248,14.578c-0.699,2.596 -2.746,4.643 -5.342,5.342c-4.743,1.248 -23.714,1.248 -23.714,1.248c0,0 -18.922,0 -23.715,-1.298c-2.596,-0.699 -4.643,-2.746 -5.341,-5.342c-1.249,-4.693 -1.249,-14.578 -1.249,-14.578c0,0 0,-9.835 1.249,-14.578c0.698,-2.596 2.795,-4.693 5.341,-5.392c4.743,-1.248 23.715,-1.248 23.715,-1.248c0,0 18.971,0 23.714,1.298c2.569,0.692 4.6,2.703 5.342,5.342Zm-19.214,14.578l-16.768,8.384l0,-16.768l16.768,8.384Z" style="fill:#5d5858;"/></svg>