<?xml version="1.0" encoding="UTF-8" standalone="no"?><!DOCTYPE svg PUBLIC "-//W3C//DTD SVG 1.1//EN" "http://www.w3.org/Graphics/SVG/1.1/DTD/svg11.dtd"><svg width="100%" height="100%" viewBox="0 0 80 80" version="1.1" xmlns="http://www.w3.org/2000/svg" xmlns:xlink="http://www.w3.org/1999/xlink" xml:space="preserve" xmlns:serif="http://www.serif.com/" style="fill-rule:evenodd;clip-rule:evenodd;stroke-linejoin:round;stroke-miterlimit:1.41421;"><path d="M40.003,9.695c-8.23,0 -9.263,0.036 -12.496,0.183c-3.226,0.148 -5.428,0.659 -7.355,1.408c-1.993,0.774 -3.684,1.81 -5.369,3.495c-1.685,1.684 -2.721,3.375 -3.497,5.367c-0.752,1.928 -1.263,4.131 -1.408,7.356c-0.145,3.232 -0.183,4.266 -0.183,12.496c0,8.23 0.037,9.26 0.183,12.493c0.149,3.226 0.66,5.428 1.408,7.355c0.775,1.993 1.81,3.684 3.496,5.368c1.683,1.686 3.374,2.724 5.366,3.498c1.928,0.749 4.131,1.26 7.357,1.408c3.232,0.147 4.264,0.183 12.494,0.183c8.231,0 9.261,-0.036 12.493,-0.183c3.226,-0.148 5.431,-0.659 7.359,-1.408c1.993,-0.774 3.681,-1.812 5.365,-3.498c1.686,-1.684 2.721,-3.375 3.498,-5.368c0.745,-1.927 1.256,-4.13 1.408,-7.355c0.145,-3.232 0.183,-4.263 0.183,-12.493c0,-8.23 -0.038,-9.263 -0.183,-12.496c-0.152,-3.226 -0.663,-5.428 -1.408,-7.355c-0.777,-1.993 -1.812,-3.684 -3.498,-5.368c-1.686,-1.686 -3.372,-2.722 -5.367,-3.495c-1.932,-0.749 -4.135,-1.26 -7.361,-1.408c-3.233,-0.147 -4.262,-0.183 -12.495,-0.183l0.01,0Zm-2.719,5.461c0.807,-0.001 1.707,0 2.719,0c8.091,0 9.05,0.029 12.246,0.175c2.954,0.135 4.558,0.628 5.626,1.043c1.414,0.549 2.423,1.206 3.483,2.267c1.06,1.06 1.717,2.071 2.268,3.485c0.414,1.067 0.909,2.67 1.043,5.625c0.145,3.195 0.177,4.154 0.177,12.242c0,8.088 -0.032,9.047 -0.177,12.242c-0.135,2.955 -0.629,4.558 -1.043,5.625c-0.55,1.415 -1.208,2.422 -2.268,3.482c-1.061,1.06 -2.068,1.717 -3.483,2.266c-1.067,0.417 -2.672,0.909 -5.626,1.044c-3.195,0.146 -4.155,0.177 -12.246,0.177c-8.092,0 -9.051,-0.031 -12.246,-0.177c-2.955,-0.136 -4.558,-0.63 -5.627,-1.044c-1.414,-0.55 -2.425,-1.206 -3.485,-2.267c-1.061,-1.061 -1.717,-2.068 -2.268,-3.483c-0.415,-1.067 -0.909,-2.671 -1.044,-5.626c-0.145,-3.194 -0.174,-4.154 -0.174,-12.247c0,-8.092 0.029,-9.047 0.174,-12.241c0.135,-2.955 0.629,-4.559 1.044,-5.627c0.549,-1.414 1.207,-2.424 2.268,-3.485c1.06,-1.061 2.071,-1.717 3.485,-2.268c1.068,-0.417 2.672,-0.909 5.627,-1.045c2.796,-0.126 3.879,-0.164 9.527,-0.17l0,0.007Zm18.895,5.032c-2.007,0 -3.636,1.627 -3.636,3.635c0,2.008 1.629,3.637 3.636,3.637c2.008,0 3.637,-1.629 3.637,-3.637c0,-2.007 -1.629,-3.636 -3.637,-3.636l0,0.001Zm-16.176,4.249c-8.595,0 -15.563,6.968 -15.563,15.563c0,8.595 6.968,15.56 15.563,15.56c8.594,0 15.56,-6.965 15.56,-15.56c0,-8.595 -6.966,-15.563 -15.561,-15.563l0.001,0Zm0,5.461c5.578,0 10.101,4.523 10.101,10.102c0,5.579 -4.523,10.102 -10.101,10.102c-5.579,0 -10.102,-4.523 -10.102,-10.102c0,-5.579 4.523,-10.102 10.102,-10.102Z" style="fill:#212121;fill-rule:nonzero;"/></svg>