<?xml version="1.0" encoding="UTF-8" standalone="no"?><!DOCTYPE svg PUBLIC "-//W3C//DTD SVG 1.1//EN" "http://www.w3.org/Graphics/SVG/1.1/DTD/svg11.dtd"><svg width="100%" height="100%" viewBox="0 0 256 256" version="1.1" xmlns="http://www.w3.org/2000/svg" xmlns:xlink="http://www.w3.org/1999/xlink" xml:space="preserve" xmlns:serif="http://www.serif.com/" style="fill-rule:evenodd;clip-rule:evenodd;stroke-linecap:round;stroke-linejoin:round;stroke-miterlimit:1.5;"><rect x="0" y="0" width="256" height="256" style="fill:#c30e00;"/><path d="M224.098,56.864c-3.611,-4.285 -6.72,-7.065 -8.403,-8.454c-0.219,-0.179 -0.412,-0.334 -0.58,-0.467c-7.772,-6.348 -17.688,-10.17 -28.505,-10.17c-13.936,0 -26.395,6.323 -34.669,16.254c-1.987,1.851 -5.409,1.975 -8.263,0.698c-2.751,-1.23 -5.657,-1.643 -8.606,-1.697c-1.091,-0.021 -2.182,-0.038 -3.271,-0.055l0,-0.043c-1.267,-0.008 -2.534,-0.005 -3.801,0.003c-1.267,-0.008 -2.534,-0.011 -3.8,-0.003l0,0.043c-1.091,0.016 -2.182,0.034 -3.272,0.055c-2.95,0.054 -5.854,0.467 -8.606,1.697c-2.855,1.277 -6.276,1.153 -8.263,-0.698c-8.275,-9.931 -20.733,-16.254 -34.67,-16.254c-10.817,0 -20.733,3.822 -28.505,10.17c-0.168,0.133 -0.361,0.288 -0.578,0.467c-1.685,1.389 -4.794,4.169 -8.405,8.454c-7.393,8.773 -8.557,-4.364 -7.625,26.023c0,15.169 7.495,28.58 18.975,36.758c7.376,5.254 16.392,8.355 26.138,8.355c3.04,0 6.005,-0.312 8.876,-0.888c0.34,-0.068 0.678,-0.138 1.015,-0.213c1.327,-0.297 2.63,-0.653 3.91,-1.064c13.406,-4.304 24.08,-14.703 28.752,-27.938c2.679,-6.842 4.781,-13.844 6.259,-21.047c0.407,-1.984 0.28,-3.281 -1.558,-4.687c-3.144,-2.407 -2.846,-5.687 0.414,-7.888c1.097,-0.741 2.372,-1.404 3.653,-1.655c2.427,-0.475 4.859,-0.803 7.29,-0.961c2.43,0.158 4.861,0.486 7.29,0.961c1.28,0.251 2.555,0.915 3.652,1.655c3.261,2.201 3.558,5.481 0.415,7.888c-1.838,1.406 -1.966,2.703 -1.558,4.687c1.477,7.203 3.58,14.205 6.258,21.047c4.673,13.234 15.345,23.634 28.752,27.938c1.281,0.411 2.584,0.767 3.911,1.064c0.336,0.075 0.675,0.145 1.013,0.213c2.872,0.576 5.838,0.888 8.877,0.888c9.746,0 18.762,-3.101 26.138,-8.355c11.48,-8.178 18.976,-21.589 18.976,-36.758c0.932,-30.387 -0.232,-17.25 -7.626,-26.023Zm-142.46,63.746c-1.545,0.503 -3.131,0.916 -4.752,1.227c-0.052,0.01 -0.105,0.018 -0.157,0.028c-2.38,0.448 -4.832,0.692 -7.34,0.692c-21.874,0 -39.67,-17.796 -39.67,-39.671c0,-12.241 5.576,-23.202 14.318,-30.485c6.88,-5.731 15.719,-9.185 25.352,-9.185c14.384,0 27.003,7.695 33.96,19.184c0.872,1.441 1.654,2.942 2.341,4.494c0.281,0.637 0.546,1.283 0.795,1.937c1.636,4.301 2.543,8.958 2.572,13.819c0,0.079 0.003,0.157 0.003,0.237c0,17.6 -11.525,32.551 -27.422,37.723Zm104.972,1.947c-2.508,0 -4.959,-0.244 -7.34,-0.692c-0.052,-0.01 -0.104,-0.018 -0.156,-0.028c-1.622,-0.311 -3.207,-0.724 -4.752,-1.227c-15.898,-5.172 -27.422,-20.123 -27.422,-37.724c0,-0.079 0.002,-0.157 0.004,-0.236c0.029,-4.862 0.936,-9.518 2.572,-13.819c0.249,-0.654 0.511,-1.3 0.793,-1.937c0.688,-1.552 1.47,-3.053 2.343,-4.494c6.955,-11.489 19.574,-19.184 33.958,-19.184c9.634,0 18.474,3.454 25.352,9.185c8.744,7.283 14.318,18.244 14.318,30.485c0,21.875 -17.796,39.671 -39.67,39.671Z" style="fill:#fff;fill-rule:nonzero;"/><path d="M149.861,204.074c0,0 -13.95,17.388 -38.409,15.317c-34.552,-2.927 -50.017,-37.766 -50.017,-37.766" style="fill:none;stroke:#fff;stroke-width:6px;"/><path d="M69.33,169.676c0,0 -7.237,-6.691 -15.821,-1.359c-8.583,5.333 -5.968,17.906 -5.968,17.906" style="fill:none;stroke:#fff;stroke-width:5px;"/></svg>